<?xml version="1.0" standalone="no"?>
<!DOCTYPE svg PUBLIC "-//W3C//DTD SVG 20010904//EN"
 "http://www.w3.org/TR/2001/REC-SVG-20010904/DTD/svg10.dtd">
<svg version="1.0" xmlns="http://www.w3.org/2000/svg"
 width="600.000000pt" height="600.000000pt" viewBox="0 0 600.000000 600.000000"
 preserveAspectRatio="xMidYMid meet">

<g transform="translate(0.000000,600.000000) scale(0.100000,-0.100000)"
fill="#000000" stroke="none">
<path d="M0 3000 l0 -3000 100 0 100 0 0 60 c0 182 51 498 130 805 48 186 136
454 156 474 11 12 30 13 124 2 124 -13 216 -42 409 -129 122 -55 127 -59 236
-167 96 -95 179 -192 210 -245 5 -8 -13 3 -40 26 -70 57 -97 74 -117 74 -31 0
-20 -21 46 -86 149 -147 321 -453 405 -724 l27 -85 43 -3 c37 -3 42 -1 38 15
-3 10 -15 52 -27 93 -88 311 -198 571 -322 764 -21 33 -38 66 -38 74 0 20
-153 203 -254 302 -115 113 -226 184 -322 205 -103 23 -153 16 -60 -8 148 -38
267 -126 431 -317 l30 -34 -35 27 c-192 151 -269 198 -413 252 -87 32 -267 75
-318 75 -48 0 -54 25 -9 35 42 9 52 29 11 23 -17 -2 -31 -2 -31 0 0 15 120
229 169 302 79 118 248 351 412 566 75 100 161 213 191 252 29 39 55 71 58 71
3 1 7 -65 8 -146 4 -142 11 -183 33 -183 6 0 54 -29 107 -64 53 -34 153 -95
222 -135 180 -104 166 -86 125 -169 -19 -39 -35 -73 -35 -76 0 -2 -20 -47 -44
-99 -25 -52 -59 -135 -76 -184 -29 -79 -31 -93 -21 -133 6 -25 19 -83 30 -130
42 -174 110 -353 235 -613 42 -87 76 -159 76 -161 0 -2 38 -82 83 -177 46 -96
108 -231 138 -301 l54 -128 43 0 c23 0 42 5 42 10 0 17 -180 418 -305 680
-146 305 -230 500 -285 655 -23 66 -48 134 -55 152 -12 29 -10 40 21 125 69
184 306 634 435 825 l53 77 74 -154 c157 -328 342 -794 473 -1190 110 -334
193 -672 254 -1033 25 -147 25 -147 46 -147 17 0 19 5 14 33 -20 112 -33 192
-31 194 4 5 161 -49 172 -58 8 -7 8 -20 0 -50 -10 -40 -10 -41 31 -80 28 -26
52 -39 70 -39 27 0 26 1 -20 42 l-47 43 121 570 c67 314 130 604 141 646 l21
75 52 10 53 9 51 -155 c68 -210 167 -558 235 -828 31 -122 61 -233 66 -246 7
-19 4 -28 -17 -47 -30 -29 -53 -71 -53 -99 0 -34 18 -23 39 24 10 24 31 52 45
62 46 29 48 43 17 150 -49 172 -49 166 5 224 43 47 48 49 67 35 33 -23 48 -19
95 28 l44 42 -6 -65 c-3 -36 -10 -153 -16 -260 -6 -107 -12 -210 -15 -228 -3
-28 -1 -32 20 -32 17 0 26 7 30 23 2 12 15 193 27 402 18 300 23 482 23 865 0
444 -2 515 -29 843 -15 197 -25 361 -22 364 9 10 136 -79 206 -143 59 -56 215
-235 289 -334 19 -25 43 -53 54 -63 17 -15 22 -37 29 -135 15 -211 12 -555 -6
-732 -30 -286 -103 -672 -185 -980 l-30 -110 38 0 37 0 44 193 c66 293 108
502 125 612 61 421 61 800 -2 1075 -18 82 -52 136 -184 292 -56 66 -66 83 -54
92 27 22 137 228 126 239 -5 5 -8 22 -5 36 5 26 -42 164 -87 252 -12 25 -16
48 -12 73 3 20 6 36 7 36 1 0 53 -51 117 -112 228 -224 466 -575 545 -805 81
-239 229 -486 273 -458 5 3 15 -11 21 -31 7 -19 45 -107 85 -194 96 -208 128
-319 162 -560 29 -216 23 -595 -13 -722 -5 -16 4 -18 80 -18 l86 0 0 3000 0
3000 -3000 0 -3000 0 0 -3000z m3484 1990 c28 -10 66 -45 66 -60 0 -19 -52
-10 -81 14 -15 13 -34 26 -40 28 -16 5 -2 28 16 28 8 0 25 -4 39 -10z m147
-47 c8 -9 -5 -2 -28 17 -24 18 -43 35 -43 37 0 7 56 -35 71 -54z m80 27 c32
-32 31 -50 -4 -50 -19 0 -87 55 -87 70 0 3 14 7 31 8 22 2 38 -5 60 -28z m87
-3 c27 -25 29 -47 4 -47 -24 0 -89 66 -70 72 18 7 39 -1 66 -25z m109 11 c27
-25 30 -53 7 -62 -10 -4 -27 7 -50 32 -18 20 -34 40 -34 45 0 16 55 6 77 -15z
m71 -20 c9 -15 13 -30 9 -34 -7 -7 -27 13 -48 49 -18 31 20 16 39 -15z m44 15
c18 -16 25 -53 11 -53 -5 1 -18 16 -30 35 -23 37 -13 47 19 18z m88 -10 c14
-18 17 -30 10 -37 -5 -5 -11 -8 -12 -5 -2 2 -16 19 -32 37 -28 30 -28 32 -9
32 12 0 31 -12 43 -27z m-695 -9 c24 -16 33 -34 18 -34 -5 0 -21 11 -38 25
-33 27 -18 34 20 9z m-69 -46 c5 -8 0 -9 -17 -5 -13 4 -30 7 -36 7 -7 0 -13 9
-13 20 0 19 2 20 29 5 17 -8 33 -20 37 -27z m454 -114 c230 -4 349 -9 355 -16
3 -3 -23 -9 -57 -12 -35 -4 -77 -14 -95 -22 -37 -18 -83 -80 -92 -126 -7 -32
-9 -33 -68 -39 -82 -8 -174 -59 -230 -128 -24 -28 -46 -64 -49 -79 -4 -15 -34
-59 -66 -98 l-59 -70 -117 -23 c-132 -25 -292 -76 -379 -119 -32 -16 -80 -33
-107 -36 -27 -4 -56 -10 -65 -13 -49 -16 69 51 154 87 133 58 205 110 205 150
0 17 -4 30 -10 30 -5 0 -7 7 -4 15 4 11 21 15 58 15 32 0 46 -3 37 -9 -20 -13
0 -22 62 -28 41 -4 65 0 116 21 76 31 72 30 65 9 -11 -34 131 124 169 188 40
69 50 109 15 63 -12 -16 -24 -32 -27 -36 -3 -4 -6 16 -7 43 -1 33 -8 60 -20
77 -27 37 -116 79 -194 92 -86 13 -335 13 -402 -1 -75 -16 -170 -71 -239 -140
-103 -103 -128 -193 -69 -243 17 -14 49 -30 70 -36 36 -10 39 -13 28 -30 -9
-14 -16 -16 -29 -9 -42 22 -139 1 -170 -37 -11 -14 -6 -14 22 4 25 15 52 22
85 22 57 0 69 -6 79 -40 4 -14 20 -39 36 -55 l29 -31 -37 -13 c-44 -16 -123
-68 -123 -81 0 -5 26 9 59 32 43 29 72 41 107 45 l49 5 -68 -44 c-64 -42 -177
-142 -177 -158 0 -4 -26 -17 -57 -29 -65 -24 -112 -56 -100 -67 6 -6 85 16
197 55 23 8 -39 -61 -79 -88 -94 -63 -266 -238 -294 -299 -22 -47 5 -31 105
61 168 156 209 181 94 56 -107 -115 -257 -353 -241 -380 10 -15 19 -5 115 119
49 64 104 133 121 152 l31 35 -20 -35 c-36 -63 -90 -174 -115 -235 -46 -110
-72 -245 -48 -245 5 0 28 46 51 103 61 146 103 238 107 234 2 -2 -8 -33 -21
-68 -28 -74 -71 -266 -81 -356 -5 -49 -3 -63 7 -63 8 0 24 41 42 110 16 61 30
109 32 108 1 -2 -2 -36 -7 -76 -12 -87 -8 -194 7 -199 7 -2 14 18 18 54 28
237 97 517 118 480 6 -12 6 -29 0 -50 -24 -76 -24 -221 -1 -258 13 -21 18 -8
29 72 6 41 15 91 21 112 10 37 11 38 29 22 16 -14 20 -34 22 -108 4 -112 22
-129 33 -30 4 37 9 71 11 74 1 3 24 1 49 -5 40 -9 45 -14 45 -38 0 -37 13 -35
31 4 25 57 35 43 53 -74 29 -185 65 -337 107 -443 43 -112 98 -200 134 -217
33 -15 69 -3 90 28 22 34 51 176 66 326 l12 118 76 -73 c131 -125 290 -189
471 -191 52 -1 109 2 125 6 17 4 24 5 17 2 -6 -3 -9 -10 -6 -16 4 -6 -1 -8
-13 -4 -16 5 -19 1 -21 -29 -2 -24 2 -37 13 -41 12 -5 13 -10 4 -20 -6 -8 -16
-11 -23 -7 -6 3 -8 3 -4 -2 4 -4 3 -14 -2 -20 -12 -15 -2 -47 12 -39 6 4 5 -3
-2 -16 -6 -12 -18 -19 -25 -16 -16 6 -47 -32 -39 -46 3 -5 2 -7 -3 -6 -4 1
-28 -17 -53 -40 -25 -23 -71 -55 -103 -72 l-58 -29 20 -20 c25 -25 66 -27 120
-5 29 11 38 20 34 32 -4 15 -3 15 6 2 9 -13 16 -12 55 8 88 47 178 195 212
347 26 120 36 67 24 -123 -5 -87 -10 -160 -10 -164 0 -3 -26 -42 -58 -85 -108
-145 -303 -289 -485 -359 -122 -46 -128 -46 -294 2 -101 29 -416 145 -471 173
-26 13 -52 41 -82 88 -142 219 -313 423 -354 423 -26 0 -18 -24 17 -57 72 -67
149 -176 212 -302 l26 -53 -73 51 c-41 28 -110 84 -154 123 -146 134 -188 186
-248 305 l-56 113 44 -34 c64 -48 151 -74 180 -53 15 11 13 15 -23 37 -22 14
-41 28 -41 32 0 8 -95 78 -106 78 -5 0 5 -12 21 -26 l30 -26 -33 22 c-24 16
-30 25 -22 34 7 10 4 18 -11 32 -12 10 -39 40 -59 66 -21 26 -41 44 -45 40 -4
-4 -5 -2 -3 3 2 9 -37 82 -52 95 -3 3 -14 23 -25 45 -11 22 -22 42 -25 45 -3
3 -6 12 -8 20 -2 8 -9 21 -15 28 -11 13 -13 22 -21 67 -7 43 -18 75 -25 71 -3
-2 -7 19 -9 48 -2 28 -9 79 -17 114 -42 180 7 435 128 682 155 313 251 437
407 521 182 100 356 141 502 118 46 -7 99 -12 118 -12 85 2 187 12 215 23 16
6 43 9 60 7 16 -3 75 -2 130 3 55 4 120 5 145 2 25 -3 115 -7 200 -8z m29
-253 c-59 -19 -119 -50 -119 -63 0 -4 24 4 53 17 28 14 59 25 67 25 8 0 -11
-11 -42 -24 -31 -13 -78 -39 -105 -58 -68 -48 -72 -50 -69 -33 4 27 136 129
187 143 61 18 86 12 28 -7z m103 -20 c-10 -6 -1 -15 33 -31 25 -12 70 -44 98
-71 45 -42 49 -48 29 -49 -12 0 -38 -6 -56 -14 -29 -12 -40 -12 -74 0 -35 11
-48 11 -97 -1 -72 -19 -106 -37 -157 -83 -38 -34 -48 -38 -132 -48 -50 -6 -91
-10 -92 -10 0 1 36 37 80 80 45 44 74 71 66 60 -14 -19 -14 -19 7 0 13 10 20
23 16 29 -3 6 -1 7 6 3 12 -8 64 27 56 38 -3 3 -2 4 2 1 3 -3 21 7 40 21 18
14 49 32 68 40 24 9 33 19 29 29 -5 12 3 15 42 15 31 0 44 -3 36 -9z m-1064
-171 c6 0 12 -7 12 -16 0 -8 4 -13 9 -9 5 3 13 0 17 -6 4 -8 9 -7 15 2 6 10 9
10 9 2 0 -6 -9 -18 -20 -26 -19 -13 -19 -15 -3 -29 10 -9 25 -18 33 -22 8 -3
-9 -4 -39 -2 -65 4 -91 28 -91 83 0 32 2 35 23 29 12 -3 28 -6 35 -6z m1392
-2 c0 -7 -7 -21 -14 -31 -10 -13 -15 -14 -23 -5 -18 23 -26 41 -17 35 6 -3 16
-2 24 4 21 12 30 11 30 -3z m-301 -22 c8 -1 22 -13 33 -26 15 -19 16 -25 6
-38 -11 -13 -11 -14 1 -8 17 11 33 -13 25 -38 -4 -12 -2 -16 5 -12 6 4 11 1
12 -6 0 -10 2 -10 6 0 2 6 10 9 15 6 6 -4 9 -3 6 2 -4 5 -9 27 -12 49 -4 22
-11 41 -16 43 -5 2 0 12 11 23 22 22 59 25 78 7 11 -11 13 -10 7 0 -4 6 9 3
28 -9 20 -12 33 -25 30 -30 -3 -5 -1 -9 5 -9 20 0 43 -62 38 -102 -5 -38 -52
-106 -69 -100 -5 1 -7 -1 -4 -6 3 -5 -5 -18 -18 -29 -13 -12 -32 -35 -42 -52
-18 -30 -44 -49 -44 -31 0 6 6 10 13 10 9 0 9 2 -1 9 -8 4 -13 11 -13 15 6 42
-1 186 -9 186 -5 0 -10 -26 -10 -57 -1 -32 -5 -77 -9 -100 -5 -24 -5 -43 -1
-43 4 0 7 -7 7 -15 0 -13 -3 -13 -18 1 -10 9 -16 21 -13 26 3 4 2 7 -3 6 -14
-4 -53 13 -53 23 0 5 -3 8 -7 8 -23 -4 -35 3 -30 16 4 8 2 17 -4 20 -5 4 -8 2
-7 -3 2 -6 0 -10 -4 -11 -22 -3 -29 0 -23 9 3 6 -3 10 -14 10 -11 0 -27 8 -37
18 -10 9 -19 16 -21 15 -9 -8 -25 0 -53 26 -42 38 -22 49 21 11 19 -16 41 -30
50 -30 9 0 19 -3 23 -7 4 -5 11 -8 14 -9 22 -3 65 -27 96 -54 20 -18 37 -27
37 -21 1 6 2 17 3 24 1 6 -1 14 -4 17 -3 3 -13 20 -23 38 -18 32 -18 34 0 47
10 7 15 17 10 21 -4 4 -7 2 -7 -4 0 -7 -7 -12 -15 -12 -8 0 -15 4 -15 8 0 9
-52 65 -90 97 -13 11 -20 14 -15 6 5 -9 3 -12 -6 -9 -8 3 -12 13 -11 24 3 14
-4 10 -29 -14 -18 -18 -36 -32 -40 -32 -4 0 -9 -12 -11 -27 -2 -14 -9 -28 -15
-31 -21 -6 -15 53 8 79 11 13 18 19 15 13 -3 -6 1 -11 8 -11 8 0 12 6 9 13 -2
7 9 20 26 29 17 8 31 12 31 8 0 -5 4 -3 8 4 9 14 71 31 97 26 11 -2 26 -5 34
-7z m361 -16 c0 -23 -45 -39 -62 -22 -9 9 18 28 60 41 1 1 2 -8 2 -19z m-1266
1 c3 -5 0 -14 -8 -20 -10 -8 -17 -6 -31 9 -18 20 -17 20 8 20 14 0 28 -4 31
-9z m46 -6 c0 -17 -35 -55 -50 -55 -11 0 31 69 43 70 4 0 7 -7 7 -15z m-109
-23 c20 2 34 -2 36 -9 7 -19 -82 -21 -101 -3 -14 14 4 33 19 20 8 -7 28 -10
46 -8z m282 11 c-7 -2 -19 -2 -25 0 -7 3 -2 5 12 5 14 0 19 -2 13 -5z m1033
-28 c-23 -17 -42 -19 -51 -6 -4 8 12 14 60 19 6 1 1 -5 -9 -13z m-1279 -21
c-3 -3 -12 -4 -19 -1 -8 3 -5 6 6 6 11 1 17 -2 13 -5z m607 -69 c-10 -42 19
-89 72 -114 27 -13 57 -28 66 -33 10 -4 23 -8 30 -8 6 0 20 -8 31 -17 11 -10
17 -12 13 -5 -10 18 -5 16 66 -22 34 -19 62 -39 60 -45 -1 -6 1 -10 5 -9 5 1
18 -3 30 -10 18 -10 22 -20 19 -45 -2 -17 -4 -39 -5 -48 -1 -22 -67 -93 -75
-81 -4 6 -19 -1 -39 -19 -17 -16 -38 -27 -45 -24 -7 3 -10 0 -7 -5 5 -9 -9
-14 -18 -7 -2 1 -11 -4 -20 -11 -9 -8 -22 -10 -28 -6 -8 4 -9 3 -5 -4 4 -8 -1
-13 -13 -13 -12 -1 -27 -2 -33 -3 -7 -1 -15 -3 -18 -7 -5 -5 -92 -39 -113 -43
-12 -3 -22 -7 -99 -39 -20 -8 -39 -12 -43 -9 -3 4 -10 0 -16 -8 -8 -13 -10
-13 -18 0 -5 8 -8 17 -5 21 7 12 -23 18 -35 6 -8 -8 -11 -7 -11 4 0 12 -2 12
-10 -1 -14 -22 -12 -27 10 -33 11 -3 18 -1 14 4 -3 5 -1 9 5 9 5 0 12 -4 16
-9 6 -11 -22 -29 -52 -34 -10 -2 -33 -11 -50 -20 -31 -16 -38 -15 -34 6 1 5
-3 6 -8 2 -6 -3 -7 -13 -4 -22 5 -13 2 -15 -11 -10 -10 4 -15 3 -11 -3 9 -14
-8 -12 -25 3 -12 10 -12 9 -2 -4 11 -14 5 -21 -37 -48 -27 -18 -55 -39 -62
-47 -19 -23 -170 -98 -196 -98 -13 0 -23 -4 -23 -8 0 -4 -7 -8 -15 -8 -11 0
-13 8 -8 33 3 17 11 41 16 52 20 36 17 43 -17 40 -17 -2 -26 -1 -19 2 7 2 10
10 7 18 -3 7 0 16 7 21 7 4 10 3 5 -4 -3 -6 -2 -13 3 -16 8 -5 4 64 -4 72 -9
9 -45 -11 -50 -28 -3 -10 -17 -35 -31 -55 -13 -20 -19 -33 -14 -30 8 5 9 -5 4
-30 -5 -27 -4 -36 5 -31 6 4 11 1 11 -7 0 -23 -12 -28 -27 -9 -8 9 -12 11 -8
5 3 -7 4 -13 1 -13 -5 0 -61 57 -86 86 -17 22 -25 64 -11 64 6 0 8 -7 5 -15
-4 -8 -2 -15 2 -16 5 0 17 -2 27 -4 18 -3 35 20 42 57 3 12 27 68 55 124 50
103 62 142 38 128 -17 -10 8 22 53 69 20 20 41 37 46 37 5 0 9 9 10 20 1 14
-7 24 -23 30 -15 6 -22 15 -18 22 4 7 3 8 -5 4 -6 -4 -9 -12 -6 -17 4 -5 0 -9
-8 -9 -8 0 -17 -7 -21 -15 -3 -8 -10 -15 -16 -15 -5 0 -33 -24 -62 -52 -28
-29 -42 -41 -30 -27 12 14 22 32 22 40 0 8 23 29 51 47 40 26 50 38 46 54 -5
17 -2 19 18 16 13 -3 23 0 22 5 -1 6 8 15 20 22 17 9 19 14 11 30 -9 15 -8 17
5 12 9 -3 19 -2 22 3 3 6 14 14 24 20 16 8 18 5 15 -28 -2 -27 -1 -31 5 -17 5
11 6 25 4 31 -2 6 3 17 12 24 31 26 9 49 -38 41 -5 -1 -6 3 -2 9 3 6 11 8 16
5 5 -4 9 -1 9 4 0 6 5 11 11 11 5 0 8 -4 5 -8 -3 -5 1 -9 8 -9 8 0 12 6 9 14
-4 11 19 19 30 11 2 -2 11 3 20 10 9 8 26 11 39 7 16 -4 19 -4 9 3 -10 7 19
17 100 36 132 31 306 62 355 63 30 1 33 -1 28 -22z m700 19 c9 -3 13 -10 10
-16 -3 -5 3 -4 13 3 16 10 31 8 77 -6 32 -10 64 -24 72 -32 7 -8 17 -14 21
-15 48 -5 228 -150 218 -175 -3 -9 0 -11 7 -7 7 5 9 2 5 -9 -4 -11 -2 -14 7
-11 14 5 63 -62 53 -72 -5 -5 -14 4 -43 41 -15 19 -15 19 -6 0 8 -14 6 -22 -5
-30 -12 -9 -13 -16 -5 -31 7 -14 7 -24 -2 -36 -7 -10 -16 -16 -19 -13 -4 3 -5
2 -3 -1 2 -3 6 -4 8 -2 7 6 81 -83 74 -90 -7 -6 -26 13 -44 45 -4 7 -23 16
-41 19 -32 7 -33 6 -21 -16 8 -15 8 -20 1 -16 -6 4 -11 1 -11 -6 0 -9 -3 -9
-10 2 -6 10 -10 11 -10 3 0 -7 -6 -13 -14 -13 -8 0 -18 -4 -21 -10 -3 -5 0 -8
7 -5 17 5 90 -95 79 -109 -5 -7 -3 -16 4 -23 8 -7 16 -9 20 -4 3 5 -1 12 -7
14 -8 3 -5 6 6 6 16 1 17 3 5 18 -13 15 -12 15 8 2 21 -13 47 -5 28 9 -21 15
-86 102 -76 102 5 0 16 -8 23 -18 7 -11 23 -24 34 -30 19 -10 24 -8 39 14 17
27 25 27 29 1 1 -8 8 -23 16 -33 14 -18 14 -18 -5 -3 -21 16 -55 15 -55 -2 0
-6 7 -23 15 -39 14 -27 14 -29 0 -24 -9 4 -24 -1 -35 -11 -17 -16 -18 -20 -5
-38 19 -27 19 -41 0 -33 -14 5 -19 -4 -16 -29 0 -5 -6 0 -15 12 -9 12 -24 32
-35 44 l-19 22 -20 -21 c-13 -13 -16 -23 -9 -27 6 -4 8 -13 5 -20 -2 -7 -2
-16 2 -20 4 -4 7 -10 8 -13 0 -4 6 -20 12 -35 7 -16 12 -33 12 -39 0 -6 7 -20
17 -30 9 -10 13 -21 9 -25 -4 -4 -18 6 -31 22 -26 33 -32 51 -12 39 21 -14
-90 110 -131 146 -23 19 -38 38 -35 44 3 5 1 6 -6 2 -6 -4 -28 6 -50 23 -21
17 -44 31 -50 31 -6 0 -11 5 -11 11 0 5 -4 8 -10 4 -5 -3 -17 2 -27 12 -10 10
-22 18 -28 18 -5 0 -54 22 -107 48 -89 44 -103 55 -99 80 0 4 -4 6 -10 5 -6
-2 -14 3 -17 11 -3 9 0 11 8 6 10 -6 11 -4 4 6 -5 8 -9 16 -10 19 0 3 -4 13
-9 23 -4 11 -2 29 6 45 18 38 119 133 132 125 6 -3 7 -1 3 5 -7 12 33 59 47
54 5 -1 6 2 2 8 -8 13 13 52 25 45 5 -3 12 -1 15 5 4 6 1 9 -6 8 -8 -2 -14 7
-15 20 -1 23 4 26 30 16z m-1308 -173 c-3 -4 -52 -11 -108 -15 -57 -4 -121 -9
-143 -11 l-40 -5 40 11 c82 22 261 36 251 20z m-246 -61 c-14 -10 -40 -21 -58
-25 -18 -3 -41 -9 -50 -12 -11 -4 -6 6 12 25 25 27 37 32 75 32 l46 0 -25 -20z
m2070 -20 c19 -11 31 -19 25 -19 -5 0 -26 8 -45 19 -19 11 -30 19 -25 19 6 0
26 -8 45 -19z m-1925 0 c-3 -5 -25 -10 -48 -10 -50 0 -237 -41 -292 -64 -21
-9 -40 -15 -42 -12 -2 2 24 15 59 29 111 44 340 84 323 57z m-65 -61 c0 -5
-15 -15 -32 -21 -109 -38 -276 -149 -402 -268 -70 -66 -81 -74 -49 -35 100
121 223 224 333 280 96 49 150 65 150 44z m2063 -57 c6 -8 -6 -4 -26 8 -20 12
-40 27 -44 32 -8 14 55 -23 70 -40z m-80 -7 c29 -19 77 -57 107 -85 49 -45 41
-41 -60 31 -133 94 -127 89 -111 89 7 0 36 -16 64 -35z m-3023 -1 c-15 -39
-12 -242 6 -334 34 -181 172 -527 329 -823 56 -106 57 -108 40 -133 -9 -15
-21 -22 -25 -18 -5 5 -53 99 -108 209 -218 437 -338 822 -305 978 6 28 23 73
38 100 29 52 40 61 25 21z m1104 11 c-4 -8 -10 -15 -15 -15 -4 0 -50 -39 -100
-87 l-93 -88 43 62 c40 58 84 100 135 130 28 17 36 16 30 -2z m1899 -60 c23
-13 62 -43 87 -65 40 -36 35 -34 -47 20 -51 33 -93 63 -93 65 0 9 12 5 53 -20z
m-2088 -7 c-84 -61 -278 -271 -375 -404 -58 -80 -69 -89 -35 -29 58 103 122
191 200 274 83 88 199 181 225 181 9 -1 3 -10 -15 -22z m2016 -35 c13 -16 12
-17 -3 -4 -17 13 -22 21 -14 21 2 0 10 -8 17 -17z m-2037 -15 c-5 -7 -29 -40
-54 -73 -106 -137 -172 -252 -251 -439 -44 -104 -51 -99 -14 10 53 159 170
361 263 457 56 57 70 68 56 45z m2001 -28 c10 -11 16 -20 13 -20 -3 0 -13 9
-23 20 -10 11 -16 20 -13 20 3 0 13 -9 23 -20z m326 -169 c24 -34 5 -19 -75
59 -58 57 -106 111 -106 120 0 18 139 -119 181 -179z m-2211 164 c0 -2 -22
-39 -50 -81 -27 -42 -50 -81 -50 -87 0 -6 -2 -8 -5 -5 -10 9 30 103 60 142 24
31 45 46 45 31z m2058 -92 c60 -60 167 -195 189 -236 12 -26 7 -22 -28 18 -24
27 -80 90 -124 138 -97 108 -112 127 -96 127 7 0 33 -21 59 -47z m-2261 -45
c-43 -79 -78 -170 -139 -368 -50 -160 -59 -136 -11 29 39 137 158 401 179 401
3 0 -10 -28 -29 -62z m76 -6 c-2 -17 -8 -43 -15 -59 -6 -15 -11 -31 -10 -35 1
-5 -3 -8 -9 -8 -8 0 -8 9 -3 28 5 15 8 46 8 68 1 32 4 41 16 39 10 -2 14 -12
13 -33z m2123 11 c36 -46 104 -154 129 -203 34 -69 22 -57 -45 45 -29 44 -66
96 -82 116 -27 35 -36 59 -22 59 4 0 13 -8 20 -17z m-2205 -107 c-45 -107 -94
-281 -110 -396 -19 -130 -18 -128 -20 -89 -4 119 136 615 166 585 3 -2 -13
-48 -36 -100z m1548 77 c1 13 10 17 36 17 44 0 55 -24 57 -119 2 -82 -4 -102
-41 -124 -34 -20 -126 -23 -133 -4 -8 19 9 218 18 227 17 15 49 16 56 0 5 -12
7 -12 7 3z m177 0 c13 -17 13 -17 14 0 0 31 28 18 41 -20 14 -43 6 -161 -13
-179 -7 -7 -35 -16 -62 -20 l-49 -7 5 49 c3 27 3 72 -1 101 -6 45 -4 55 13 73
25 25 35 25 52 3z m-358 -20 c4 -28 22 -30 22 -3 0 15 7 20 25 20 32 0 40 -41
29 -152 l-9 -83 -46 -9 c-25 -5 -61 -6 -80 -2 -34 6 -34 7 -31 49 2 31 1 38
-7 27 -6 -8 -11 -28 -11 -44 0 -16 -3 -27 -6 -24 -3 3 -7 53 -9 112 -3 114 -1
121 50 129 53 8 70 3 73 -20z m-247 5 c0 -10 2 -10 6 0 7 18 23 15 24 -5 0
-11 3 -13 6 -5 7 18 41 15 52 -5 14 -28 24 -127 16 -172 l-7 -41 -80 0 c-87 0
-122 12 -114 38 2 9 7 47 11 84 5 50 12 73 30 92 25 28 54 34 56 14z m990 -42
c10 -22 19 -48 19 -56 0 -17 -44 56 -55 91 -12 37 15 11 36 -35z m-1102 26 c6
-10 5 -53 -1 -112 -10 -96 -26 -137 -67 -174 -17 -16 -22 -16 -40 -4 -58 41
-105 147 -95 214 3 24 10 44 14 44 5 0 15 3 24 6 13 5 16 -1 17 -27 2 -34 2
-34 9 6 4 22 8 30 9 18 2 -34 21 -38 21 -5 0 24 6 31 33 40 48 15 65 14 76 -6z
m-1895 -83 c49 -167 160 -453 245 -626 15 -32 54 -113 86 -180 l58 -122 -79
-130 -78 -129 -40 20 c-23 11 -119 66 -214 121 l-172 102 3 360 3 360 34 80
c36 85 119 239 126 233 2 -3 15 -42 28 -89z m3082 19 c30 -60 74 -173 74 -191
0 -12 -94 187 -105 224 -12 36 5 19 31 -33z m-1977 -5 c-28 -47 -29 -48 -29
-37 0 12 38 74 46 74 3 0 -5 -17 -17 -37z m1701 -92 c0 -104 -17 -385 -31
-504 -13 -115 -6 -139 11 -38 9 54 16 71 28 72 13 1 12 2 -2 6 -18 5 -18 6 5
19 l24 13 -24 1 c-15 0 -21 5 -18 14 3 7 9 82 13 165 6 128 9 151 23 152 13 1
13 2 -1 6 -15 4 -18 17 -18 84 0 43 3 79 8 79 16 -2 82 -96 82 -118 0 -13 4
-21 9 -18 13 9 24 -67 16 -116 -10 -66 -15 -78 -33 -79 -15 -1 -15 -2 1 -6 11
-3 16 -11 13 -21 -3 -9 -15 -61 -26 -115 -11 -54 -27 -124 -36 -155 -20 -71
-92 -250 -111 -277 -13 -18 -14 -16 -9 25 15 109 26 277 30 425 6 209 0 168
-20 -145 -19 -297 -24 -342 -43 -348 -11 -4 -12 5 -8 39 12 81 17 248 7 204
-5 -22 -9 -60 -9 -84 -1 -24 -4 -42 -7 -39 -3 3 2 134 10 289 9 156 16 339 16
406 0 80 4 124 11 129 9 5 10 -34 5 -152 -14 -356 -15 -421 -6 -374 6 25 13
156 16 292 7 241 7 247 28 250 41 7 46 -1 46 -81z m-1154 12 c-36 -295 -73
-562 -79 -557 -4 4 -8 77 -9 163 -1 110 -4 72 -8 -129 -4 -237 -8 -291 -22
-322 -9 -21 -21 -38 -25 -38 -5 0 -17 118 -27 261 -16 221 -16 263 -5 270 10
6 11 9 2 9 -19 0 -16 18 5 23 13 4 11 5 -5 6 -19 1 -23 7 -23 33 0 17 -3 29
-6 25 -3 -3 -1 -95 6 -203 12 -189 12 -198 -6 -212 -18 -13 -17 -14 6 -8 l25
7 -25 -15 c-24 -14 -24 -15 -4 -16 20 0 22 -7 29 -96 4 -52 5 -97 2 -100 -2
-2 -11 -2 -20 2 -29 11 -99 291 -132 524 -20 141 -27 161 -19 55 7 -94 37
-267 65 -379 11 -43 18 -80 16 -82 -6 -7 -65 220 -81 316 -8 47 -20 131 -26
188 -12 102 -12 104 11 128 12 13 26 24 29 24 4 0 10 -33 14 -72 12 -129 48
-363 58 -378 6 -10 7 -3 3 23 -46 288 -54 377 -31 377 8 0 17 4 20 9 3 4 -6 6
-19 3 -22 -4 -25 -1 -25 26 0 27 9 36 78 80 42 27 97 59 121 72 54 27 62 19
56 -65 -4 -54 -3 -56 5 -20 5 22 9 56 9 76 1 39 7 49 29 49 12 0 13 -11 8 -57z
m-506 23 c0 -11 -50 -99 -50 -89 0 21 32 93 41 93 5 0 9 -2 9 -4z m-219 -107
c-41 -174 -41 -173 -37 -69 3 100 27 183 47 163 7 -7 4 -37 -10 -94z m2188
-39 c0 -8 -11 12 -24 44 -14 33 -25 67 -24 75 1 19 48 -98 48 -119z m-3336 10
c-16 -103 -21 -503 -8 -674 l7 -95 130 -81 c71 -45 171 -104 222 -132 50 -27
95 -54 100 -58 11 -11 -12 -70 -28 -70 -14 1 -217 120 -380 224 l-123 79 -7
60 c-19 184 1 549 38 711 14 59 52 144 61 134 1 -2 -4 -46 -12 -98z m1904 58
c-3 -7 -5 -2 -5 12 0 14 2 19 5 13 2 -7 2 -19 0 -25z m1000 10 c-3 -8 -6 -5
-6 6 -1 11 2 17 5 13 3 -3 4 -12 1 -19z m-37 -161 c-17 -78 -48 -106 -44 -39
l3 37 -11 -37 c-8 -25 -18 -38 -29 -38 -32 0 -40 24 -34 107 10 123 8 119 62
122 26 1 50 5 53 7 10 11 11 -110 0 -159z m399 113 c0 -9 -4 -8 -9 5 -5 11 -9
27 -9 35 0 9 4 8 9 -5 5 -11 9 -27 9 -35z m-544 -147 c-6 -44 -34 -80 -43 -55
-3 10 -8 8 -18 -5 -12 -17 -13 -16 -14 12 l-2 30 -10 -27 c-7 -22 -16 -28 -38
-28 -45 0 -54 20 -41 93 6 35 11 80 11 100 l0 37 58 1 c31 0 66 4 77 8 19 8
20 3 23 -58 2 -36 1 -85 -3 -108z m-1494 52 l-9 -60 -1 72 c0 39 2 80 7 90 12
29 14 -32 3 -102z m947 109 c12 -4 23 -14 23 -23 1 -14 2 -13 6 2 4 14 16 17
65 17 l61 0 -5 -110 c-3 -68 -9 -115 -17 -123 -15 -15 -92 -13 -128 5 -37 18
-50 48 -58 140 -9 98 -4 107 53 92z m-257 -93 c-1 -33 -6 -72 -10 -88 l-8 -28
-8 30 c-7 26 -9 27 -17 10 -6 -15 -7 -13 -4 10 2 17 8 58 12 93 6 57 8 62 22
48 11 -11 15 -32 13 -75z m520 79 c57 0 59 -1 60 -27 l1 -28 7 30 c4 18 14 31
25 33 18 4 19 -1 13 -69 -8 -103 -35 -183 -64 -187 -13 -2 -23 2 -23 9 0 9 -3
9 -15 -1 -22 -18 -49 -4 -73 39 -18 32 -22 55 -22 126 0 75 2 86 16 81 9 -3
42 -6 75 -6z m-1067 -64 c-3 -21 -9 -35 -11 -32 -3 3 -2 21 1 42 4 20 10 34
12 31 3 -3 2 -21 -2 -41z m654 -16 c9 0 28 12 43 26 l27 26 9 -74 c7 -59 6
-76 -6 -90 -20 -26 -26 -23 -38 20 l-10 37 -8 -52 c-9 -63 -24 -68 -72 -21
-30 29 -33 38 -33 89 0 86 6 94 42 64 16 -14 37 -25 46 -25z m878 -78 c-13
-12 -16 8 -9 69 l8 64 3 -64 c2 -35 1 -66 -2 -69z m-1376 -268 c11 -55 23
-110 26 -124 4 -14 4 -23 1 -20 -13 12 -56 182 -76 299 -17 98 -18 127 -9 144
10 19 14 6 25 -89 6 -62 21 -156 33 -210z m1380 241 c0 -8 -6 -15 -12 -16 -8
0 -9 -2 -2 -5 7 -3 9 -23 7 -52 -3 -26 -8 -123 -12 -217 l-8 -170 -1 238 c-2
205 0 237 13 237 8 0 15 -7 15 -15z m-1983 -67 c-3 -8 -6 -5 -6 6 -1 11 2 17
5 13 3 -3 4 -12 1 -19z m959 -82 c1 -11 17 -33 35 -50 18 -17 27 -24 21 -15
-7 9 -8 20 -4 24 4 5 2 5 -5 1 -10 -6 -48 33 -39 41 8 8 35 -10 29 -21 -4 -8
-3 -8 7 1 12 11 59 2 85 -17 9 -7 144 -33 173 -33 6 0 12 -8 12 -18 0 -10 5
-21 10 -24 6 -4 8 -10 5 -15 -3 -5 4 -11 15 -15 11 -3 20 -10 20 -14 0 -9 -4
-8 115 -19 l90 -8 -45 -13 c-25 -7 -55 -14 -67 -15 -11 0 -19 -4 -16 -8 4 -8
-10 -11 -52 -11 -37 0 -115 15 -121 24 -3 5 1 6 9 3 8 -3 17 -1 21 4 6 10 -24
10 -40 -1 -29 -18 -223 114 -264 179 -8 13 -18 24 -22 24 -5 0 -8 5 -8 11 0
19 33 5 36 -15z m970 -234 l0 -209 -28 16 c-23 14 -29 26 -38 86 -7 38 -19
100 -27 138 l-15 67 54 54 c29 29 53 53 54 54 0 1 0 -92 0 -206z m324 -84 l19
-59 -47 -87 c-26 -48 -56 -104 -67 -124 l-19 -37 -23 21 c-13 12 -23 25 -23
29 0 4 22 43 49 86 26 43 51 87 55 99 4 13 -4 46 -23 91 -30 70 -30 70 -14
121 l17 52 28 -67 c16 -37 37 -93 48 -125z m-422 52 c12 -68 20 -125 18 -128
-3 -2 -13 1 -22 6 -14 8 -23 37 -36 119 -18 111 -17 138 5 131 7 -3 21 -56 35
-128z m-961 83 c-3 -10 -5 -4 -5 12 0 17 2 24 5 18 2 -7 2 -21 0 -30z m807
-65 c-5 -7 -2 -9 9 -5 11 4 14 2 10 -9 -4 -11 -9 -12 -16 -5 -8 8 -16 6 -28
-5 -13 -12 -19 -12 -25 -3 -4 7 -3 10 3 6 6 -4 18 2 28 13 20 22 30 26 19 8z
m501 -136 c-10 -27 -99 -172 -104 -172 -3 1 -21 14 -39 29 l-33 29 26 26 c23
23 62 97 97 186 10 24 11 24 35 -29 13 -30 21 -61 18 -69z m-2136 -286 c173
-144 337 -237 576 -326 260 -97 456 -149 493 -131 9 4 49 18 87 31 92 30 143
56 251 128 111 75 239 197 292 280 l40 63 6 -53 c12 -105 36 -501 36 -588 l0
-90 -34 22 c-40 27 -46 49 -46 191 0 64 -5 110 -15 133 -14 34 -17 36 -51 29
-68 -12 -313 -123 -390 -176 -23 -15 -45 -24 -50 -20 -5 5 -27 13 -49 18 -22
6 -49 14 -59 19 -14 5 -17 4 -12 -4 5 -8 -2 -12 -21 -12 -38 0 -95 -17 -104
-31 -5 -9 -43 4 -131 44 -233 106 -479 191 -491 170 -2 -5 8 -62 24 -128 33
-138 34 -145 15 -145 -28 0 -36 -25 -28 -92 l8 -65 -46 -51 -45 -51 -59 157
c-69 181 -238 593 -302 732 l-44 95 37 -43 c20 -24 71 -72 112 -106z m442
-351 c112 -38 241 -90 369 -148 103 -47 115 -55 124 -85 5 -18 7 -34 5 -36 -2
-2 -42 4 -89 14 -46 11 -123 22 -171 26 -104 8 -252 -10 -271 -34 -11 -14 -10
-15 12 -8 14 5 85 10 159 13 113 5 153 2 253 -17 65 -13 118 -27 118 -32 0
-21 -124 -87 -202 -108 -91 -24 -120 -40 -72 -40 44 0 173 38 223 66 24 13 45
24 47 24 2 0 4 -11 4 -25 0 -54 -188 -167 -403 -241 -62 -21 -112 -33 -116
-28 -11 12 -61 298 -61 349 0 31 6 44 27 61 l27 21 -26 104 c-15 57 -30 114
-34 127 -3 12 -4 22 -2 22 3 0 38 -11 79 -25z m1238 -135 c8 -217 4 -333 -11
-380 -14 -44 -15 -45 -54 -41 -62 5 -201 49 -289 90 l-80 37 5 64 5 64 40 15
c141 50 355 166 355 192 0 17 -18 9 -103 -45 -76 -47 -293 -145 -301 -135 -1
2 -8 24 -15 47 -11 39 -10 45 6 58 32 25 255 133 338 163 73 26 81 28 90 13 5
-10 12 -73 14 -142z m-573 -55 c58 -34 104 -110 104 -173 0 -56 -6 -67 -43
-81 -49 -19 -67 -14 -67 17 0 57 -31 133 -72 178 -22 24 -48 44 -57 44 -10 0
-2 -12 22 -31 48 -40 75 -93 85 -169 l9 -60 -29 0 c-16 0 -42 7 -57 15 -28 14
-29 16 -24 78 4 43 0 82 -11 121 -10 32 -15 60 -12 63 6 7 64 21 90 22 11 1
38 -10 62 -24z m76 6 c4 -4 10 -22 14 -41 l6 -35 -21 25 c-11 14 -32 35 -48
48 l-28 24 35 -7 c19 -4 38 -10 42 -14z m571 -170 l27 -14 0 -311 c-1 -171 -5
-369 -9 -439 l-8 -128 -54 -55 c-48 -48 -55 -52 -69 -39 -29 26 -56 17 -104
-35 -25 -27 -46 -54 -46 -60 0 -5 -3 -10 -8 -10 -4 0 -20 51 -36 112 -43 173
-138 484 -205 677 -52 149 -65 199 -47 180 2 -2 96 -192 209 -421 180 -367
227 -451 227 -407 0 6 -92 194 -204 418 -135 269 -202 412 -196 421 24 39 185
-115 358 -341 53 -70 99 -126 101 -124 12 12 -153 237 -243 333 l-66 69 85
-28 c47 -16 105 -32 128 -35 28 -4 61 -21 100 -51 72 -55 90 -47 24 11 -30 25
-44 45 -39 51 14 15 32 121 32 188 0 32 3 57 8 55 4 -2 19 -10 35 -17z m-1375
-210 c12 -63 25 -118 30 -123 12 -12 105 12 220 56 117 45 183 79 259 133 l63
44 42 -23 c24 -13 44 -24 46 -25 6 -2 -37 -203 -63 -293 -13 -47 -53 -220 -90
-385 -113 -516 -112 -510 -126 -506 -8 3 -55 18 -105 34 l-90 30 -16 78 -16
78 49 122 c27 67 79 185 116 263 36 77 101 217 145 310 43 94 90 184 103 202
25 33 32 54 17 54 -13 0 -211 -280 -316 -447 -111 -178 -143 -237 -124 -231 7
3 50 65 96 139 93 150 232 359 238 359 2 0 -30 -68 -71 -150 -89 -178 -204
-430 -235 -518 -13 -34 -24 -61 -26 -59 -2 2 -13 46 -23 99 -24 115 -65 279
-91 366 l-20 63 40 53 c22 29 40 56 40 59 0 19 -21 2 -51 -42 l-35 -49 -58
180 -57 181 37 38 c21 22 41 36 45 31 3 -4 16 -58 27 -121z"/>
<path d="M2644 4195 c-10 -8 -14 -15 -8 -15 5 0 19 7 30 15 10 8 14 15 8 15
-5 0 -19 -7 -30 -15z"/>
<path d="M2203 4136 c-37 -17 -83 -89 -90 -144 -9 -67 15 -152 53 -190 30 -30
39 -34 72 -29 68 11 131 112 105 170 -10 21 -11 20 -28 -13 -53 -106 -143 -85
-153 35 -9 108 49 176 118 140 38 -20 47 -15 23 13 -24 28 -61 35 -100 18z"/>
<path d="M2200 4055 c-20 -24 -15 -89 9 -124 27 -37 65 -42 82 -10 15 29 6
105 -16 129 -22 24 -58 26 -75 5z"/>
<path d="M1923 3435 c0 -22 2 -30 4 -17 2 12 2 30 0 40 -3 9 -5 -1 -4 -23z"/>
<path d="M4167 4294 c-3 -3 -3 -12 -1 -19 3 -7 -4 -15 -15 -18 -21 -5 -36 -48
-45 -127 -6 -57 -9 -71 -20 -89 -6 -10 -5 -12 2 -7 7 4 12 2 12 -5 0 -7 11 -2
25 11 13 12 24 25 23 29 -3 14 15 41 27 41 7 0 19 8 26 18 11 14 11 15 -1 5
-8 -7 -18 -13 -22 -13 -11 0 11 43 26 52 6 3 10 23 10 45 -2 53 -3 55 -13 49
-11 -7 -33 18 -24 27 3 4 4 7 1 7 -2 0 -7 -3 -11 -6z"/>
<path d="M3930 4201 c0 -6 4 -13 10 -16 6 -3 7 1 4 9 -7 18 -14 21 -14 7z"/>
<path d="M4081 4153 c7 -12 15 -20 18 -17 3 2 -3 12 -13 22 -17 16 -18 16 -5
-5z"/>
<path d="M3505 4170 c-3 -6 1 -7 9 -4 18 7 21 14 7 14 -6 0 -13 -4 -16 -10z"/>
<path d="M3100 4061 c0 -6 4 -13 10 -16 6 -3 7 1 4 9 -7 18 -14 21 -14 7z"/>
<path d="M3066 4027 c3 -10 9 -15 12 -12 3 3 0 11 -7 18 -10 9 -11 8 -5 -6z"/>
<path d="M2985 3971 c-3 -5 -2 -12 3 -15 5 -3 9 1 9 9 0 17 -3 19 -12 6z"/>
<path d="M3936 3942 c-3 -5 1 -9 9 -9 8 0 12 4 9 9 -3 4 -7 8 -9 8 -2 0 -6 -4
-9 -8z"/>
<path d="M2935 3880 c-3 -6 1 -7 9 -4 18 7 21 14 7 14 -6 0 -13 -4 -16 -10z"/>
<path d="M2994 3832 c3 -5 -9 -17 -26 -27 -37 -21 -62 -46 -77 -74 -16 -28
-14 -44 4 -37 14 5 14 3 0 -17 -8 -12 -21 -22 -28 -22 -6 0 -12 -4 -12 -10 0
-19 -27 -75 -36 -75 -5 0 -9 -8 -9 -18 0 -10 -7 -28 -16 -40 -8 -12 -12 -22
-8 -22 3 0 0 -10 -9 -23 -14 -21 -13 -23 8 -25 15 -1 33 9 49 29 14 17 30 28
34 25 5 -3 9 1 9 9 0 8 -4 12 -9 9 -5 -4 -4 3 3 14 7 12 17 18 21 16 5 -3 7
-2 6 3 -1 4 6 23 16 42 14 26 20 31 27 20 7 -10 8 -6 5 14 -3 15 -1 27 4 27 6
0 5 11 0 26 -12 30 -12 37 -2 31 4 -3 25 14 48 38 42 45 45 75 9 88 -9 4 -14
3 -11 -1z m16 -30 c0 -5 -21 -23 -46 -41 -25 -17 -44 -26 -42 -19 3 7 22 25
44 40 44 31 44 31 44 20z m-80 -136 c0 -8 -17 -34 -37 -58 -21 -24 -46 -55
-55 -68 l-18 -25 10 29 c11 31 41 77 73 114 24 26 27 27 27 8z"/>
<path d="M3866 3726 c10 -8 21 -12 24 -10 5 6 -21 24 -34 24 -6 0 -1 -6 10
-14z"/>
<path d="M2939 3576 c13 -16 2 -58 -13 -49 -6 3 -2 -3 8 -16 18 -20 39 -17 42
7 0 4 6 20 13 37 10 24 14 27 22 15 9 -13 10 -13 6 0 -2 10 -18 15 -46 16 -31
1 -39 -1 -32 -10z"/>
<path d="M2671 3378 c2 -2 14 -11 26 -21 20 -18 21 -18 19 -1 -2 9 -13 19 -26
21 -13 2 -22 2 -19 1z"/>
<path d="M2740 3346 c0 -2 7 -9 15 -16 13 -11 14 -10 9 4 -5 14 -24 23 -24 12z"/>
<path d="M4368 4169 c-20 -11 -13 -39 9 -39 8 0 12 -4 9 -9 -3 -5 1 -12 10
-15 8 -3 12 -2 9 4 -3 6 0 10 9 10 24 0 11 35 -14 38 -18 3 -20 6 -9 13 19 12
-2 11 -23 -2z"/>
<path d="M4630 4030 c-9 -6 -10 -10 -3 -10 6 0 15 5 18 10 8 12 4 12 -15 0z"/>
<path d="M4682 3898 c-18 -18 -15 -32 12 -57 15 -14 26 -19 31 -12 3 6 3 11
-1 11 -3 0 -1 7 6 15 9 11 9 15 1 15 -7 0 -9 5 -6 10 4 6 3 10 -2 9 -20 -3
-34 2 -28 11 8 14 2 13 -13 -2z"/>
<path d="M4271 3746 c2 -2 15 -9 29 -15 24 -11 24 -11 6 3 -16 13 -49 24 -35
12z"/>
<path d="M4396 3665 c-3 -8 -2 -14 2 -14 30 5 62 -3 56 -13 -5 -7 -3 -8 6 -3
10 6 7 12 -11 26 -29 23 -45 24 -53 4z"/>
<path d="M4435 3620 c10 -11 20 -20 22 -20 2 0 -2 9 -9 20 -7 11 -17 20 -22
20 -5 0 -1 -9 9 -20z"/>
<path d="M4665 3600 c-3 -5 -1 -10 4 -10 6 0 11 5 11 10 0 6 -2 10 -4 10 -3 0
-8 -4 -11 -10z"/>
<path d="M4626 3468 c3 -5 10 -6 15 -3 13 9 11 12 -6 12 -8 0 -12 -4 -9 -9z"/>
<path d="M4665 3410 c3 -5 8 -10 11 -10 2 0 4 5 4 10 0 6 -5 10 -11 10 -5 0
-7 -4 -4 -10z"/>
<path d="M4632 3210 c0 -14 2 -19 5 -12 2 6 2 18 0 25 -3 6 -5 1 -5 -13z"/>
<path d="M3501 2823 c-10 -24 -9 -26 2 -11 8 10 16 16 19 13 2 -3 5 2 5 10 0
24 -13 18 -26 -12z"/>
<path d="M3560 2806 c0 -2 7 -9 15 -16 13 -11 14 -10 9 4 -5 14 -24 23 -24 12z"/>
<path d="M3790 1522 c0 -20 143 -51 154 -34 3 6 -20 15 -59 21 -36 6 -72 14
-80 17 -8 4 -15 1 -15 -4z"/>
<path d="M4306 2382 c-3 -5 1 -64 9 -133 47 -438 53 -939 16 -1559 -21 -359
-34 -540 -47 -642 -5 -40 -3 -48 10 -48 9 0 16 6 16 13 0 7 7 91 15 187 41
483 68 1233 55 1495 -9 183 -32 451 -50 584 -6 41 -8 76 -6 79 14 14 325 -294
385 -381 32 -46 33 -53 43 -190 15 -211 5 -598 -21 -797 -40 -309 -85 -548
-163 -858 -27 -111 -31 -148 -12 -129 10 10 69 258 114 477 99 490 127 839 99
1283 -10 170 -10 173 -43 222 -43 65 -237 267 -323 337 -81 65 -90 71 -97 60z"/>
<path d="M2188 2308 c-97 -148 -391 -713 -404 -778 -8 -39 106 -320 256 -630
65 -135 161 -342 213 -460 155 -350 196 -435 208 -439 7 -2 10 2 6 10 -59 142
-331 739 -411 904 -92 189 -193 417 -248 559 l-15 39 117 241 c114 234 243
470 301 550 l29 39 51 -109 c98 -208 179 -397 229 -530 57 -153 224 -685 276
-879 45 -168 170 -696 179 -756 7 -48 20 -77 30 -68 11 12 -136 645 -206 887
-163 563 -278 890 -416 1187 -118 252 -135 285 -148 285 -7 0 -28 -24 -47 -52z"/>
<path d="M5591 1281 c-11 -137 -59 -469 -80 -551 l-9 -35 -1 47 c-1 53 -19
241 -27 276 -2 12 -10 22 -18 22 -10 0 -14 -39 -20 -171 -11 -292 -41 -468
-125 -732 -23 -70 -41 -130 -41 -132 0 -3 33 -5 73 -5 l72 0 37 93 c83 203
176 518 185 625 5 63 4 72 -11 72 -19 0 -30 -25 -52 -122 -9 -38 -18 -67 -20
-65 -3 3 2 33 10 68 20 88 43 251 56 394 11 119 4 365 -9 365 -4 0 -13 -67
-20 -149z m-44 -713 c-3 -8 -6 -5 -6 6 -1 11 2 17 5 13 3 -3 4 -12 1 -19z"/>
<path d="M3641 1267 c-1 -16 12 -108 29 -205 36 -217 71 -499 101 -819 17
-182 26 -243 36 -243 17 0 17 4 -7 227 -33 312 -69 586 -106 813 -34 213 -52
287 -53 227z"/>
<path d="M3556 1258 c-5 -23 -27 -294 -46 -568 -8 -121 -29 -590 -30 -667 0
-14 6 -23 15 -23 13 0 15 30 17 203 l1 202 8 -140 c3 -77 7 -168 8 -202 1 -51
4 -63 17 -63 13 0 15 7 11 37 -23 145 -16 608 18 1155 4 72 -9 117 -19 66z"/>
<path d="M1720 565 c0 -20 64 -197 68 -186 4 13 -46 172 -59 186 -6 6 -9 6 -9
0z"/>
</g>
</svg>
